<svg width="202" height="144" viewBox="0 0 202 144" fill="none" xmlns="http://www.w3.org/2000/svg">
<rect width="202" height="144" fill="#F4F3EE"/>
<path d="M10.48 118V48.4H64.6C67.64 48.4 70.4 49.16 72.88 50.68C75.44 52.2 77.44 54.2 78.88 56.68C80.4 59.16 81.16 61.92 81.16 64.96V118H65.44V65.56C65.44 65.16 65.28 64.84 64.96 64.6C64.72 64.28 64.4 64.12 64 64.12H27.64C27.24 64.12 26.88 64.28 26.56 64.6C26.32 64.84 26.2 65.16 26.2 65.56V118H10.48ZM136.836 118C133.796 118 131.036 117.24 128.556 115.72C126.076 114.2 124.076 112.2 122.556 109.72C121.036 107.24 120.276 104.48 120.276 101.44V64.96C120.276 61.92 121.036 59.16 122.556 56.68C124.076 54.2 126.076 52.2 128.556 50.68C131.036 49.16 133.796 48.4 136.836 48.4H174.396C177.436 48.4 180.196 49.16 182.676 50.68C185.236 52.2 187.236 54.2 188.676 56.68C190.196 59.16 190.956 61.92 190.956 64.96V101.44C190.956 104.48 190.196 107.24 188.676 109.72C187.236 112.2 185.276 114.2 182.796 115.72C180.316 117.24 177.516 118 174.396 118H136.836ZM137.436 102.28H173.796C174.196 102.28 174.516 102.16 174.756 101.92C175.076 101.6 175.236 101.24 175.236 100.84V65.56C175.236 65.16 175.076 64.84 174.756 64.6C174.516 64.28 174.196 64.12 173.796 64.12H137.436C137.036 64.12 136.676 64.28 136.356 64.6C136.116 64.84 135.996 65.16 135.996 65.56V100.84C135.996 101.24 136.116 101.6 136.356 101.92C136.676 102.16 137.036 102.28 137.436 102.28Z" fill="#1C1917"/>
<path d="M93.7947 118V48.4H109.515V118H93.7947ZM93.7947 41.44V25.6H109.515V41.44H93.7947Z" fill="#C15F3C"/>
</svg>
