<svg width="226" height="144" viewBox="0 0 226 144" fill="none" xmlns="http://www.w3.org/2000/svg">
<rect x="0.019989" y="51" width="225" height="70" fill="#A3A3A3"/>
<path d="M22.3789 121V51.4H76.4989C79.5389 51.4 82.2989 52.16 84.7789 53.68C87.3389 55.2 89.3389 57.2 90.7789 59.68C92.2989 62.16 93.0589 64.92 93.0589 67.96V121H77.3389V68.56C77.3389 68.16 77.1789 67.84 76.8589 67.6C76.6189 67.28 76.2989 67.12 75.8989 67.12H39.5389C39.1389 67.12 38.7789 67.28 38.4589 67.6C38.2189 67.84 38.0989 68.16 38.0989 68.56V121H22.3789ZM105.694 121V51.4H121.414V121H105.694ZM105.694 44.44V28.6H121.414V44.44H105.694ZM148.735 121C145.695 121 142.935 120.24 140.455 118.72C137.975 117.2 135.975 115.2 134.455 112.72C132.935 110.24 132.175 107.48 132.175 104.44V67.96C132.175 64.92 132.935 62.16 134.455 59.68C135.975 57.2 137.975 55.2 140.455 53.68C142.935 52.16 145.695 51.4 148.735 51.4H186.295C189.335 51.4 192.095 52.16 194.575 53.68C197.135 55.2 199.135 57.2 200.575 59.68C202.095 62.16 202.855 64.92 202.855 67.96V104.44C202.855 107.48 202.095 110.24 200.575 112.72C199.135 115.2 197.175 117.2 194.695 118.72C192.215 120.24 189.415 121 186.295 121H148.735ZM149.335 105.28H185.695C186.095 105.28 186.415 105.16 186.655 104.92C186.975 104.6 187.135 104.24 187.135 103.84V68.56C187.135 68.16 186.975 67.84 186.655 67.6C186.415 67.28 186.095 67.12 185.695 67.12H149.335C148.935 67.12 148.575 67.28 148.255 67.6C148.015 67.84 147.895 68.16 147.895 68.56V103.84C147.895 104.24 148.015 104.6 148.255 104.92C148.575 105.16 148.935 105.28 149.335 105.28Z" fill="#0A0A0A"/>
</svg>
