<svg width="752" height="144" viewBox="0 0 752 144" fill="none" xmlns="http://www.w3.org/2000/svg">
<rect y="51" width="752" height="70" fill="#404040"/>
<path d="M58.6909 121V51.4H112.811C115.851 51.4 118.611 52.16 121.091 53.68C123.651 55.2 125.651 57.2 127.091 59.68C128.611 62.16 129.371 64.92 129.371 67.96V121H113.651V68.56C113.651 68.16 113.491 67.84 113.171 67.6C112.931 67.28 112.611 67.12 112.211 67.12H75.8509C75.4509 67.12 75.0909 67.28 74.7709 67.6C74.5309 67.84 74.4109 68.16 74.4109 68.56V121H58.6909ZM142.006 121V51.4H157.726V121H142.006ZM142.006 44.44V28.6H157.726V44.44H142.006ZM185.047 121C182.007 121 179.247 120.24 176.767 118.72C174.287 117.2 172.287 115.2 170.767 112.72C169.247 110.24 168.487 107.48 168.487 104.44V67.96C168.487 64.92 169.247 62.16 170.767 59.68C172.287 57.2 174.287 55.2 176.767 53.68C179.247 52.16 182.007 51.4 185.047 51.4H222.607C225.647 51.4 228.407 52.16 230.887 53.68C233.447 55.2 235.447 57.2 236.887 59.68C238.407 62.16 239.167 64.92 239.167 67.96V104.44C239.167 107.48 238.407 110.24 236.887 112.72C235.447 115.2 233.487 117.2 231.007 118.72C228.527 120.24 225.727 121 222.607 121H185.047ZM185.647 105.28H222.007C222.407 105.28 222.727 105.16 222.967 104.92C223.287 104.6 223.447 104.24 223.447 103.84V68.56C223.447 68.16 223.287 67.84 222.967 67.6C222.727 67.28 222.407 67.12 222.007 67.12H185.647C185.247 67.12 184.887 67.28 184.567 67.6C184.327 67.84 184.207 68.16 184.207 68.56V103.84C184.207 104.24 184.327 104.6 184.567 104.92C184.887 105.16 185.247 105.28 185.647 105.28ZM266.029 121C262.989 121 260.229 120.24 257.749 118.72C255.269 117.2 253.269 115.2 251.749 112.72C250.229 110.24 249.469 107.48 249.469 104.44V30.04H265.189V51.4H292.309V67.12H265.189V103.84C265.189 104.24 265.309 104.6 265.549 104.92C265.869 105.16 266.229 105.28 266.629 105.28H292.309V121H266.029ZM318.407 121C315.367 121 312.607 120.24 310.127 118.72C307.647 117.2 305.647 115.2 304.127 112.72C302.607 110.24 301.847 107.48 301.847 104.44V67.96C301.847 64.92 302.607 62.16 304.127 59.68C305.647 57.2 307.647 55.2 310.127 53.68C312.607 52.16 315.367 51.4 318.407 51.4H355.967C359.007 51.4 361.767 52.16 364.247 53.68C366.807 55.2 368.807 57.2 370.247 59.68C371.767 62.16 372.527 64.92 372.527 67.96V94.12H317.567V103.84C317.567 104.24 317.687 104.6 317.927 104.92C318.247 105.16 318.607 105.28 319.007 105.28H372.527V121H318.407ZM317.567 79.96H356.807V68.56C356.807 68.16 356.647 67.84 356.327 67.6C356.087 67.28 355.767 67.12 355.367 67.12H319.007C318.607 67.12 318.247 67.28 317.927 67.6C317.687 67.84 317.567 68.16 317.567 68.56V79.96ZM385.293 121V28.6H401.013V51.4H439.413C442.453 51.4 445.213 52.16 447.693 53.68C450.253 55.2 452.253 57.2 453.693 59.68C455.213 62.16 455.973 64.92 455.973 67.96V104.44C455.973 107.48 455.213 110.24 453.693 112.72C452.253 115.2 450.253 117.2 447.693 118.72C445.213 120.24 442.453 121 439.413 121H385.293ZM402.453 105.28H438.813C439.213 105.28 439.533 105.16 439.773 104.92C440.093 104.6 440.253 104.24 440.253 103.84V68.56C440.253 68.16 440.093 67.84 439.773 67.6C439.533 67.28 439.213 67.12 438.813 67.12H402.453C402.053 67.12 401.693 67.28 401.373 67.6C401.133 67.84 401.013 68.16 401.013 68.56V103.84C401.013 104.24 401.133 104.6 401.373 104.92C401.693 105.16 402.053 105.28 402.453 105.28ZM481.532 121C478.492 121 475.732 120.24 473.252 118.72C470.772 117.2 468.772 115.2 467.252 112.72C465.732 110.24 464.972 107.48 464.972 104.44V67.96C464.972 64.92 465.732 62.16 467.252 59.68C468.772 57.2 470.772 55.2 473.252 53.68C475.732 52.16 478.492 51.4 481.532 51.4H519.092C522.132 51.4 524.892 52.16 527.372 53.68C529.932 55.2 531.932 57.2 533.372 59.68C534.892 62.16 535.652 64.92 535.652 67.96V104.44C535.652 107.48 534.892 110.24 533.372 112.72C531.932 115.2 529.972 117.2 527.492 118.72C525.012 120.24 522.212 121 519.092 121H481.532ZM482.132 105.28H518.492C518.892 105.28 519.212 105.16 519.452 104.92C519.772 104.6 519.932 104.24 519.932 103.84V68.56C519.932 68.16 519.772 67.84 519.452 67.6C519.212 67.28 518.892 67.12 518.492 67.12H482.132C481.732 67.12 481.372 67.28 481.052 67.6C480.812 67.84 480.692 68.16 480.692 68.56V103.84C480.692 104.24 480.812 104.6 481.052 104.92C481.372 105.16 481.732 105.28 482.132 105.28ZM561.805 121C558.765 121 556.005 120.24 553.525 118.72C551.045 117.2 549.045 115.2 547.525 112.72C546.005 110.24 545.245 107.48 545.245 104.44V67.96C545.245 64.92 546.005 62.16 547.525 59.68C549.045 57.2 551.045 55.2 553.525 53.68C556.005 52.16 558.765 51.4 561.805 51.4H599.365C602.405 51.4 605.165 52.16 607.645 53.68C610.205 55.2 612.205 57.2 613.645 59.68C615.165 62.16 615.925 64.92 615.925 67.96V104.44C615.925 107.48 615.165 110.24 613.645 112.72C612.205 115.2 610.245 117.2 607.765 118.72C605.285 120.24 602.485 121 599.365 121H561.805ZM562.405 105.28H598.765C599.165 105.28 599.485 105.16 599.725 104.92C600.045 104.6 600.205 104.24 600.205 103.84V68.56C600.205 68.16 600.045 67.84 599.725 67.6C599.485 67.28 599.165 67.12 598.765 67.12H562.405C562.005 67.12 561.645 67.28 561.325 67.6C561.085 67.84 560.965 68.16 560.965 68.56V103.84C560.965 104.24 561.085 104.6 561.325 104.92C561.645 105.16 562.005 105.28 562.405 105.28ZM628.691 121V28.6H644.411V78.28H656.771L681.611 51.4H698.411V55.72L670.691 86.2L698.291 116.68V121H681.611L656.771 94.12H644.411V121H628.691Z" fill="#0A0A0A"/>
</svg>
