<svg width="656" height="144" viewBox="0 0 656 144" fill="none" xmlns="http://www.w3.org/2000/svg">
<rect width="656" height="144" fill="#1C1917"/>
<path d="M10.48 118V48.4H64.6C67.64 48.4 70.4 49.16 72.88 50.68C75.44 52.2 77.44 54.2 78.88 56.68C80.4 59.16 81.16 61.92 81.16 64.96V118H65.44V65.56C65.44 65.16 65.28 64.84 64.96 64.6C64.72 64.28 64.4 64.12 64 64.12H27.64C27.24 64.12 26.88 64.28 26.56 64.6C26.32 64.84 26.2 65.16 26.2 65.56V118H10.48ZM136.836 118C133.796 118 131.036 117.24 128.556 115.72C126.076 114.2 124.076 112.2 122.556 109.72C121.036 107.24 120.276 104.48 120.276 101.44V64.96C120.276 61.92 121.036 59.16 122.556 56.68C124.076 54.2 126.076 52.2 128.556 50.68C131.036 49.16 133.796 48.4 136.836 48.4H174.396C177.436 48.4 180.196 49.16 182.676 50.68C185.236 52.2 187.236 54.2 188.676 56.68C190.196 59.16 190.956 61.92 190.956 64.96V101.44C190.956 104.48 190.196 107.24 188.676 109.72C187.236 112.2 185.276 114.2 182.796 115.72C180.316 117.24 177.516 118 174.396 118H136.836ZM137.436 102.28H173.796C174.196 102.28 174.516 102.16 174.756 101.92C175.076 101.6 175.236 101.24 175.236 100.84V65.56C175.236 65.16 175.076 64.84 174.756 64.6C174.516 64.28 174.196 64.12 173.796 64.12H137.436C137.036 64.12 136.676 64.28 136.356 64.6C136.116 64.84 135.996 65.16 135.996 65.56V100.84C135.996 101.24 136.116 101.6 136.356 101.92C136.676 102.16 137.036 102.28 137.436 102.28ZM217.818 118C214.778 118 212.018 117.24 209.538 115.72C207.058 114.2 205.058 112.2 203.538 109.72C202.018 107.24 201.258 104.48 201.258 101.44V27.04H216.978V48.4H244.098V64.12H216.978V100.84C216.978 101.24 217.098 101.6 217.338 101.92C217.658 102.16 218.018 102.28 218.418 102.28H244.098V118H217.818ZM270.196 118C267.156 118 264.396 117.24 261.916 115.72C259.436 114.2 257.436 112.2 255.916 109.72C254.396 107.24 253.636 104.48 253.636 101.44V64.96C253.636 61.92 254.396 59.16 255.916 56.68C257.436 54.2 259.436 52.2 261.916 50.68C264.396 49.16 267.156 48.4 270.196 48.4H307.756C310.796 48.4 313.556 49.16 316.036 50.68C318.596 52.2 320.596 54.2 322.036 56.68C323.556 59.16 324.316 61.92 324.316 64.96V91.12H269.356V100.84C269.356 101.24 269.476 101.6 269.716 101.92C270.036 102.16 270.396 102.28 270.796 102.28H324.316V118H270.196ZM269.356 76.96H308.596V65.56C308.596 65.16 308.436 64.84 308.116 64.6C307.876 64.28 307.556 64.12 307.156 64.12H270.796C270.396 64.12 270.036 64.28 269.716 64.6C269.476 64.84 269.356 65.16 269.356 65.56V76.96ZM337.082 118V25.6H352.802V48.4H391.202C394.242 48.4 397.002 49.16 399.482 50.68C402.042 52.2 404.042 54.2 405.482 56.68C407.002 59.16 407.762 61.92 407.762 64.96V101.44C407.762 104.48 407.002 107.24 405.482 109.72C404.042 112.2 402.042 114.2 399.482 115.72C397.002 117.24 394.242 118 391.202 118H337.082ZM354.242 102.28H390.602C391.002 102.28 391.322 102.16 391.562 101.92C391.882 101.6 392.042 101.24 392.042 100.84V65.56C392.042 65.16 391.882 64.84 391.562 64.6C391.322 64.28 391.002 64.12 390.602 64.12H354.242C353.842 64.12 353.482 64.28 353.162 64.6C352.922 64.84 352.802 65.16 352.802 65.56V100.84C352.802 101.24 352.922 101.6 353.162 101.92C353.482 102.16 353.842 102.28 354.242 102.28ZM433.321 118C430.281 118 427.521 117.24 425.041 115.72C422.561 114.2 420.561 112.2 419.041 109.72C417.521 107.24 416.761 104.48 416.761 101.44V64.96C416.761 61.92 417.521 59.16 419.041 56.68C420.561 54.2 422.561 52.2 425.041 50.68C427.521 49.16 430.281 48.4 433.321 48.4H470.881C473.921 48.4 476.681 49.16 479.161 50.68C481.721 52.2 483.721 54.2 485.161 56.68C486.681 59.16 487.441 61.92 487.441 64.96V101.44C487.441 104.48 486.681 107.24 485.161 109.72C483.721 112.2 481.761 114.2 479.281 115.72C476.801 117.24 474.001 118 470.881 118H433.321ZM433.921 102.28H470.281C470.681 102.28 471.001 102.16 471.241 101.92C471.561 101.6 471.721 101.24 471.721 100.84V65.56C471.721 65.16 471.561 64.84 471.241 64.6C471.001 64.28 470.681 64.12 470.281 64.12H433.921C433.521 64.12 433.161 64.28 432.841 64.6C432.601 64.84 432.481 65.16 432.481 65.56V100.84C432.481 101.24 432.601 101.6 432.841 101.92C433.161 102.16 433.521 102.28 433.921 102.28ZM513.594 118C510.554 118 507.794 117.24 505.314 115.72C502.834 114.2 500.834 112.2 499.314 109.72C497.794 107.24 497.034 104.48 497.034 101.44V64.96C497.034 61.92 497.794 59.16 499.314 56.68C500.834 54.2 502.834 52.2 505.314 50.68C507.794 49.16 510.554 48.4 513.594 48.4H551.154C554.194 48.4 556.954 49.16 559.434 50.68C561.994 52.2 563.994 54.2 565.434 56.68C566.954 59.16 567.714 61.92 567.714 64.96V101.44C567.714 104.48 566.954 107.24 565.434 109.72C563.994 112.2 562.034 114.2 559.554 115.72C557.074 117.24 554.274 118 551.154 118H513.594ZM514.194 102.28H550.554C550.954 102.28 551.274 102.16 551.514 101.92C551.834 101.6 551.994 101.24 551.994 100.84V65.56C551.994 65.16 551.834 64.84 551.514 64.6C551.274 64.28 550.954 64.12 550.554 64.12H514.194C513.794 64.12 513.434 64.28 513.114 64.6C512.874 64.84 512.754 65.16 512.754 65.56V100.84C512.754 101.24 512.874 101.6 513.114 101.92C513.434 102.16 513.794 102.28 514.194 102.28ZM580.48 118V25.6H596.2V75.28H608.56L633.4 48.4H650.2V52.72L622.48 83.2L650.08 113.68V118H633.4L608.56 91.12H596.2V118H580.48Z" fill="#F4F3EE"/>
<path d="M93.7947 118V48.4H109.515V118H93.7947ZM93.7947 41.44V25.6H109.515V41.44H93.7947Z" fill="#DA7756"/>
</svg>
